<svg width="147" height="160" viewBox="0 0 147 160" fill="none" xmlns="http://www.w3.org/2000/svg">
<path d="M86.4551 0C114.657 0 139.371 14.8189 147 44.4297C134.39 27.2495 118.01 20.5458 96.7168 18.748C57.9788 15.4779 20.7801 60.9681 57.4658 99.6455C61.8271 102.984 73.0129 107.761 82.8643 100.159C86.9685 93.9962 87.6523 90.0583 87.4814 88.8594C79.0155 91.6842 63.3154 90.7592 61.0576 74.7344C58.8342 65.917 60.647 46.0215 85.6855 36.9814C109.288 31.8451 123.424 44.4114 128.555 49.291C139.66 58.8378 151.573 85.3705 138.277 117.109C121.602 156.916 69.6489 170.541 36.0977 151.522C11.1792 137.397 0.000121272 113.77 0 88.3457C9.23559 110.689 23.3453 121.327 39.251 130.978C73.8971 151.998 140.417 121.395 116.728 72.9355V72.9365C116.716 72.9117 116.703 72.8867 116.691 72.8613C116.615 72.7048 116.538 72.5475 116.459 72.3906C114.334 68.2588 107.789 59.551 95.4346 57.7842C82.5047 55.9351 80.1271 65.5742 80.5547 70.625C88.3365 70.7962 103.746 75.453 103.131 92.7109C102.515 109.969 87.8234 117.708 80.5547 119.42C78.7587 120.105 72.9099 121.372 63.8799 120.961C62.6582 120.905 62.5964 120.961 59.7744 120.447C45.5986 117.54 26.1693 110.129 19.4971 79.3564C13.5968 38.2659 48.4836 0.000302984 86.4551 0Z" fill="#F9BA00"/>
</svg>
